<svg width="21" height="20" viewBox="0 0 21 20" fill="none" xmlns="http://www.w3.org/2000/svg">
<path d="M1.25 13.7009C0.532561 14.1151 0.286748 15.0325 0.700962 15.7499C1.11518 16.4674 2.03256 16.7132 2.75 16.299L1.25 13.7009ZM20.7694 5.38817C20.9838 4.58797 20.5089 3.76546 19.7087 3.55105L6.66874 0.0569931C5.86854 -0.15742 5.04603 0.317454 4.83162 1.11765C4.61721 1.91785 5.09208 2.74036 5.89228 2.95477L17.4834 6.0606L14.3776 17.6517C14.1631 18.4519 14.638 19.2744 15.4382 19.4888C16.2384 19.7032 17.0609 19.2284 17.2753 18.4282L20.7694 5.38817ZM2.75 16.299L20.0705 6.29898L18.5705 3.7009L1.25 13.7009L2.75 16.299Z" fill="#B9FF66"/>
</svg>
